<?xml version="1.0" encoding="UTF-8"?><svg id="Layer_1" xmlns="http://www.w3.org/2000/svg" xmlns:xlink="http://www.w3.org/1999/xlink" viewBox="0 0 421 403"><defs><style>.cls-1{fill:url(#linear-gradient);}.cls-1,.cls-2,.cls-3,.cls-4{stroke-width:0px;}.cls-2{fill:url(#linear-gradient-2);}.cls-3{fill:url(#linear-gradient-3);}.cls-4{fill:url(#linear-gradient-4);}</style><linearGradient id="linear-gradient" x1="65.67" y1="135.3" x2="339.63" y2="135.3" gradientUnits="userSpaceOnUse"><stop offset="0" stop-color="#339df2"/><stop offset="1" stop-color="#d51ac7"/></linearGradient><linearGradient id="linear-gradient-2" x1="65.67" y1="200.6" x2="339.63" y2="200.6" xlink:href="#linear-gradient"/><linearGradient id="linear-gradient-3" x1="65.67" y1="205.28" x2="339.63" y2="205.28" xlink:href="#linear-gradient"/><linearGradient id="linear-gradient-4" x1="65.67" y1="209.41" x2="339.63" y2="209.41" xlink:href="#linear-gradient"/></defs><rect class="cls-1" x="135.97" y="118.32" width="33.95" height="33.95" rx="16.98" ry="16.98"/><rect class="cls-2" x="79.82" y="177.09" width="33.95" height="47.01" rx="16.98" ry="16.98"/><rect class="cls-3" x="302.05" y="174.48" width="33.95" height="61.6" rx="16.98" ry="16.98"/><path class="cls-4" d="M265.48,154.67h0c-9.38,0-16.98,7.6-16.98,16.98h0c0,5.71-4.63,10.34-10.34,10.34h-.54c-6.01,0-10.88-4.87-10.88-10.88v-20.13c0-9.38-7.6-16.98-16.98-16.98h0c-9.38,0-16.98,7.6-16.98,16.98v37.17c0,1.55.56,3.04,1.56,4.22,3.63,4.31,5.11,10.47,2.72,16.89-1.56,4.21-4.9,7.56-9.11,9.12-11.76,4.36-22.82-4.22-22.82-15.39,0-3.72,1.24-7.15,3.32-9.91.83-1.1,1.25-2.46,1.25-3.84v-10.84c0-9.38-7.6-16.98-16.98-16.98h0c-9.38,0-16.98,7.6-16.98,16.98v72.04c0,9.38,7.6,16.98,16.98,16.98h0c9.38,0,16.98-7.6,16.98-16.98v-.74c0-6.43,5.21-11.64,11.64-11.64h0c6.31,0,11.43,5.12,11.43,11.43v18.37c0,9.38,7.6,16.98,16.98,16.98h0c9.38,0,16.98-7.6,16.98-16.98v-39.4c0-.62-.23-1.22-.66-1.67-4.27-4.32-6.19-10.95-3.62-17.87,1.56-4.21,4.9-7.56,9.11-9.12,11.76-4.36,22.82,4.22,22.82,15.39,0,4.72-1.98,8.98-5.16,11.99-.47.45-.72,1.08-.72,1.72h0c0,9.38,7.6,16.98,16.98,16.98h0c9.38,0,16.98-7.6,16.98-16.98v-57.24c0-9.38-7.6-16.98-16.98-16.98Z"/></svg>