<?xml version="1.0" encoding="UTF-8"?><svg id="Layer_1" xmlns="http://www.w3.org/2000/svg" xmlns:xlink="http://www.w3.org/1999/xlink" viewBox="0 0 627 302"><defs><style>.cls-1{letter-spacing:-.02em;}.cls-2{fill:url(#linear-gradient);}.cls-2,.cls-3,.cls-4,.cls-5,.cls-6{stroke-width:0px;}.cls-7{letter-spacing:0em;}.cls-8{letter-spacing:0em;}.cls-9{font-family:BaiJamjuree-Bold, 'Bai Jamjuree';font-size:48.34px;font-weight:700;}.cls-4{fill:url(#linear-gradient-2);}.cls-10{letter-spacing:0em;}.cls-5{fill:url(#linear-gradient-3);}.cls-11{letter-spacing:-.01em;}.cls-12{letter-spacing:-.02em;}.cls-6{fill:url(#linear-gradient-4);}</style><linearGradient id="linear-gradient" x1="198.17" y1="64.94" x2="416.3" y2="64.94" gradientUnits="userSpaceOnUse"><stop offset="0" stop-color="#339df2"/><stop offset="1" stop-color="#d51ac7"/></linearGradient><linearGradient id="linear-gradient-2" x1="198.17" y1="116.93" x2="416.3" y2="116.93" xlink:href="#linear-gradient"/><linearGradient id="linear-gradient-3" x1="198.17" y1="120.66" x2="416.3" y2="120.66" xlink:href="#linear-gradient"/><linearGradient id="linear-gradient-4" x1="198.17" y1="123.95" x2="416.3" y2="123.95" xlink:href="#linear-gradient"/></defs><rect class="cls-2" x="254.15" y="51.43" width="27.03" height="27.03" rx="13.52" ry="13.52"/><rect class="cls-4" x="209.44" y="98.21" width="27.03" height="37.43" rx="13.52" ry="13.52"/><rect class="cls-5" x="386.37" y="96.14" width="27.03" height="49.04" rx="13.52" ry="13.52"/><path class="cls-6" d="M357.26,80.37h0c-7.47,0-13.52,6.05-13.52,13.52h0c0,4.55-3.69,8.23-8.23,8.23h-.43c-4.79,0-8.66-3.88-8.66-8.66v-16.03c0-7.47-6.05-13.52-13.52-13.52h0c-7.47,0-13.52,6.05-13.52,13.52v29.6c0,1.23.45,2.42,1.24,3.36,2.89,3.43,4.07,8.34,2.17,13.45-1.24,3.35-3.9,6.02-7.25,7.26-9.36,3.47-18.17-3.36-18.17-12.25,0-2.96.99-5.69,2.64-7.89.66-.88,1-1.96,1-3.06v-8.63c0-7.47-6.05-13.52-13.52-13.52h0c-7.47,0-13.52,6.05-13.52,13.52v57.36c0,7.47,6.05,13.52,13.52,13.52h0c7.47,0,13.52-6.05,13.52-13.52v-.59c0-5.12,4.15-9.27,9.27-9.27h0c5.02,0,9.1,4.07,9.1,9.1v14.63c0,7.47,6.05,13.52,13.52,13.52h0c7.47,0,13.52-6.05,13.52-13.52v-31.37c0-.49-.18-.98-.53-1.33-3.4-3.44-4.93-8.72-2.88-14.23,1.24-3.35,3.9-6.02,7.25-7.26,9.36-3.47,18.17,3.36,18.17,12.25,0,3.76-1.58,7.15-4.11,9.55-.37.36-.57.86-.57,1.37h0c0,7.47,6.05,13.52,13.52,13.52h0c7.47,0,13.52-6.05,13.52-13.52v-45.58c0-7.47-6.05-13.52-13.52-13.52Z"/><text class="cls-9" transform="translate(69.1 251.88)"><tspan class="cls-8" x="0" y="0">P</tspan><tspan class="cls-7" x="31.23" y="0">ena In</tspan><tspan class="cls-11" x="172.96" y="0">o</tspan><tspan class="cls-12" x="201.09" y="0">v</tspan><tspan x="225.4" y="0">asi Si</tspan><tspan class="cls-10" x="353.65" y="0">s</tspan><tspan class="cls-1" x="379.89" y="0">t</tspan><tspan x="398.94" y="0">em</tspan></text><path class="cls-3" d="M552.5,232.02c-7.19,0-13.05-5.85-13.05-13.05s5.85-13.04,13.05-13.04,13.04,5.85,13.04,13.04-5.85,13.05-13.04,13.05ZM552.5,208.32c-5.88,0-10.66,4.78-10.66,10.66s4.78,10.66,10.66,10.66,10.66-4.78,10.66-10.66-4.78-10.66-10.66-10.66Z"/><path class="cls-3" d="M548.45,213.88h2.47c.75,0,1.28.24,1.6.72.32.48.48,1.19.48,2.12s-.14,1.63-.42,2.1c-.28.47-.79.71-1.52.71h-.76v3.7h-1.84v-9.35ZM550.4,217.84c.22,0,.39-.04.5-.13.11-.08.17-.2.21-.36.03-.16.05-.38.05-.67,0-.39-.04-.67-.13-.85-.09-.17-.26-.26-.52-.26h-.21v2.26h.11Z"/><path class="cls-3" d="M554.39,223.22v-7.55h-1.11v-1.8h4.09v1.8h-1.11v7.55h-1.87Z"/></svg>